<?xml version="1.0" encoding="UTF-8" standalone="no"?>
<svg
   xmlns:dc="http://purl.org/dc/elements/1.1/"
   xmlns:cc="http://creativecommons.org/ns#"
   xmlns:rdf="http://www.w3.org/1999/02/22-rdf-syntax-ns#"
   xmlns:svg="http://www.w3.org/2000/svg"
   xmlns="http://www.w3.org/2000/svg"
   xmlns:sodipodi="http://sodipodi.sourceforge.net/DTD/sodipodi-0.dtd"
   xmlns:inkscape="http://www.inkscape.org/namespaces/inkscape"
   width="1712"
   height="1712"
   viewBox="0 0 1712 1712"
   version="1.1"
   id="svg4487"
   sodipodi:docname="search.svg"
   inkscape:version="0.92.1 r15371">
  <metadata
     id="metadata4493">
    <rdf:RDF>
      <cc:Work
         rdf:about="">
        <dc:format>image/svg+xml</dc:format>
        <dc:type
           rdf:resource="http://purl.org/dc/dcmitype/StillImage" />
        <dc:title></dc:title>
      </cc:Work>
    </rdf:RDF>
  </metadata>
  <defs
     id="defs4491" />
  <sodipodi:namedview
     pagecolor="#ffffff"
     bordercolor="#666666"
     borderopacity="1"
     objecttolerance="10"
     gridtolerance="10"
     guidetolerance="10"
     inkscape:pageopacity="0"
     inkscape:pageshadow="2"
     inkscape:window-width="1920"
     inkscape:window-height="1017"
     id="namedview4489"
     showgrid="false"
     fit-margin-top="24"
     fit-margin-left="24"
     fit-margin-right="24"
     fit-margin-bottom="24"
     inkscape:zoom="0.16730652"
     inkscape:cx="624.58884"
     inkscape:cy="629.06713"
     inkscape:window-x="1912"
     inkscape:window-y="-8"
     inkscape:window-maximized="1"
     inkscape:current-layer="svg4487" />
  <path
     d="M 1176,728 Q 1176,543 1044.5,411.5 913,280 728,280 543,280 411.5,411.5 280,543 280,728 280,913 411.5,1044.5 543,1176 728,1176 913,1176 1044.5,1044.5 1176,913 1176,728 Z m 512,832 q 0,52 -38,90 -38,38 -90,38 -54,0 -90,-38 L 1127,1308 Q 948,1432 728,1432 585,1432 454.5,1376.5 324,1321 229.5,1226.5 135,1132 79.5,1001.5 24,871 24,728 24,585 79.5,454.5 135,324 229.5,229.5 324,135 454.5,79.5 585,24 728,24 q 143,0 273.5,55.5 130.5,55.5 225,150 94.5,94.5 150,225 55.5,130.5 55.5,273.5 0,220 -124,399 l 343,343 q 37,37 37,90 z"
     id="path4485"
     style="fill:#000000;fill-opacity:1"
     inkscape:connector-curvature="0" />
</svg>
